# xmcd CD database file
# Generated: 火  6月 24 09:20:05 2003 by KSCD
# 
# Track frame offsets:
#       150
#       21705
#       43502
#       63165
#       81605
#       102292
#       119112
#       137745
#       166895
#       185357
#       203042
#       221630
#       243482
#       264562
#       281687
#       302082
#
# Disc length: 4437 seconds
#
# Revision: 2
# Processed by: cddbd v1.4PL0 Copyright (c) Steve Scherf et al.
# Submitted via: Kscd 1.3.3
#
DISCID=f5115310
DTITLE=吉 幾三 - 吉 幾三ベスト・コレクション
DYEAR=1900
DGENRE=
TTITLE0=旅の途中で
TTITLE1=酔歌
TTITLE2=酒場の花
TTITLE3=柳ケ瀬ブルース
TTITLE4=情炎
TTITLE5=あなたのブルース
TTITLE6=津軽平野
TTITLE7=私のために
TTITLE8=酒よ
TTITLE9=哀のブルース
TTITLE10=おんな道
TTITLE11=恋
TTITLE12=HEY HEY HEY
TTITLE13=女の意地
TTITLE14=雪國
TTITLE15=ありがとうの唄
EXTD=
EXTT0=
EXTT1=
EXTT2=
EXTT3=
EXTT4=
EXTT5=
EXTT6=
EXTT7=
EXTT8=
EXTT9=
EXTT10=
EXTT11=
EXTT12=
EXTT13=
EXTT14=
EXTT15=
PLAYORDER=
